<svg xmlns="http://www.w3.org/2000/svg" width="133.876" height="34" viewBox="0 0 133.876 34">
  <g id="그룹_4597" data-name="그룹 4597" transform="translate(11865 1629.847)">
    <g id="그룹_4595" data-name="그룹 4595" transform="translate(-11865 -1629.847)">
      <g id="ico_download_blue">
        <path id="패스_3443" data-name="패스 3443" d="M0,0H34V34H0Z" fill="none"/>
        <path id="패스_3444" data-name="패스 3444" d="M29,12.529H22.143V3H11.857v9.529H5L17,23.647ZM5,26.824V30H29V26.824Z" fill="#3c4576"/>
      </g>
      <g id="ico_download_green" transform="translate(68)">
        <path id="패스_3443-2" data-name="패스 3443" d="M0,0H34V34H0Z" fill="none"/>
        <path id="패스_3444-2" data-name="패스 3444" d="M29,12.529H22.143V3H11.857v9.529H5L17,23.647ZM5,26.824V30H29V26.824Z" fill="#0fa556"/>
      </g>
      <g id="ico_download_white" transform="translate(34)">
        <path id="패스_3443-3" data-name="패스 3443" d="M0,0H34V34H0Z" fill="none"/>
        <path id="패스_3444-3" data-name="패스 3444" d="M29,12.529H22.143V3H11.857v9.529H5L17,23.647ZM5,26.824V30H29V26.824Z" fill="#fff"/>
      </g>
      <g id="ico_download_green-2" data-name="ico_download_green" transform="translate(99.876)">
        <path id="패스_3443-4" data-name="패스 3443" d="M0,0H34V34H0Z" fill="none"/>
        <path id="패스_3444-4" data-name="패스 3444" d="M29,12.529H22.143V3H11.857v9.529H5L17,23.647ZM5,26.824V30H29V26.824Z" fill="#d9f0df"/>
      </g>
    </g>
  </g>
</svg>
