<?xml version="1.0" encoding="utf-8"?>
<!-- Generator: Adobe Illustrator 25.2.3, SVG Export Plug-In . SVG Version: 6.00 Build 0)  -->
<svg version="1.1" id="레이어_1" xmlns="http://www.w3.org/2000/svg" xmlns:xlink="http://www.w3.org/1999/xlink" x="0px"
	 y="0px" viewBox="0 0 368.7 56.2" style="enable-background:new 0 0 368.7 56.2;" xml:space="preserve">
<style type="text/css">
	.st0{fill:#00B365;}
	.st1{fill:#009755;}
</style>
<g>
	<path class="st0" d="M188.7,32.4c-13.1,0-17.2,2.3-17.2,8.4c0,5.5,3.4,8.3,17.2,8.4c13.8,0,17.2-2.8,17.2-8.4
		C205.8,34.6,201.8,32.4,188.7,32.4z M188.7,43.6c-9.1,0-10.2-1.1-10.2-2.9c0-1.9,1.1-2.9,10.2-2.9c9.1,0,10.2,1,10.2,2.9
		C198.9,42.6,197.7,43.6,188.7,43.6z"/>
	<g>
		<path class="st0" d="M106.5,52.4V8.9l-36-8.8c-2.6-0.6-4.8,1.1-4.8,3.8v43.4l36,8.8C104.1,56.7,106.4,54.9,106.5,52.4z"/>
		<path class="st1" d="M70.5,0.1c-2.6-0.6-4.8,1.1-4.8,3.8v43.4L80.4,51l6.3-46.8L70.5,0.1z"/>
		<path class="st0" d="M73.6,52.4V8.9l-36-8.8c-2.6-0.6-4.8,1.1-4.8,3.8v43.4l36,8.8C71.2,56.7,73.6,54.9,73.6,52.4z"/>
		<path class="st1" d="M37.6,0.2c-2.6-0.6-4.8,1.1-4.8,3.8v43.4L47.6,51l6.4-46.8L37.6,0.2z"/>
		<path class="st0" d="M40.8,52.4V8.9l-36-8.8C2.2-0.5,0,1.2,0,3.9v43.4l36,8.8C38.4,56.7,40.8,54.9,40.8,52.4z"/>
	</g>
	<g>
		<path class="st0" d="M212.7,35.1c-0.2,1.7-0.2,4,0,5.7c3.3,0.1,16.9,0,26.8,0c0,2.7-0.1,5.8,0,8.1c0.9,0,2.3,0.1,3.7,0.1
			c1.7,0,3.2-1.4,3.2-3.1c0.1-3.3,0.1-8.1-0.1-10.7C242.2,34.9,216.3,34.9,212.7,35.1z"/>
		<path class="st0" d="M248.7,27c-2,0-9.5-0.1-15.7-0.1V24c5.9,0,11.7,0,13.3-0.1c0.1-1.4,0.1-3.9,0-5.6c-3.3,0-22.9,0-26.5,0v-3.4
			c3.5,0,22.8,0,25.9,0c0.2-1.7,0.2-3.9,0-5.6c-5.2-0.3-27-0.3-32.7,0c-0.2,3.3-0.3,11.2,0,14.6c1.8,0,7.2,0.1,13,0.1v2.9
			c-6.2,0-12.5,0-15.7,0.1c-0.2,1.7-0.2,4.2,0,5.8c5.3,0.2,34.5,0.3,38.4,0C248.9,31,248.9,28.5,248.7,27z"/>
	</g>
	<g>
		<path class="st0" d="M287.3,27.8c0-6.6,0-19.6,0-19.6c-2.4-0.1-4.7-0.1-6.9,0l0,22.8h3.7C285.8,31,287.2,29.5,287.3,27.8z"/>
		<path class="st0" d="M287.2,32.8c-1.7-0.1-4.6-0.1-6.9,0v2.9c-5.7,0-13.3,0-18.9,0v-2.9c-1-0.1-5.5-0.2-6.7,0
			c-0.2,3.2-0.2,11.1,0,16c2.9,0.3,21.6,0.2,29.4,0c1.7,0,3.1-1.4,3.1-3.1C287.4,41,287.3,36.7,287.2,32.8z M280.3,43.1
			c-3.3,0.1-14.7,0.1-18.9,0v-2.3c5.5,0,12.9,0,18.9,0V43.1z"/>
		<path class="st0" d="M255.6,30.5c4.4,0,12.9,0,16.6,0c3.6,0,6.6-0.2,7.1-0.9v-6.2c-1.5,0.7-4.2,1-7.2,1c-4.3,0-11.9,0-11.9,0v-2.1
			c3.9,0.1,10.3,0.1,14.2,0c1.2,0,2.1-0.9,2.1-2.1c0.1-3.4,0-9.2-0.1-11.1c-4.1-0.4-19.8-0.2-23,0c0,0,0,4.4,0.1,5.4
			c1.3,0.1,12.9,0.1,16.1,0.1l-0.1,2.3c-2.5,0-13,0-16,0c-0.1,1.5-0.2,7.8-0.1,11.3C253.5,29.6,254.5,30.5,255.6,30.5z"/>
	</g>
	<path class="st0" d="M197.5,21.8h1.8c0,3.7,0,9.1,0,9.1h3.1c1.8,0,3.1-1.4,3.1-3.2l0-19.5h-6.2c0,0,0,4.3,0,7.5h-1.7
		c0-2.9-0.1-7.5-0.1-7.5h-6.2l0,22.4h6.2C197.5,30.6,197.5,25.2,197.5,21.8z"/>
	<g>
		<path class="st0" d="M153.7,11.4c0,0-4.5-0.1-8.2-0.1l-0.7,0l0-2l-7.7-1.9v3.9l-9.5,0.1l0,5.6l26.1,0L153.7,11.4z"/>
		<path class="st0" d="M141,32.9c8.7,0,12.4-1.7,12.4-7.4c0-5.4-3.3-7.4-12.4-7.4c-8.7,0-12.4,1.7-12.4,7.4
			C128.5,30.9,131.9,32.9,141,32.9z M141,23.4c4.7,0,6.2,0.5,6.2,2.1c0,1.6-1.3,2.1-6.2,2.1c-4.7,0-6.2-0.5-6.2-2.1
			C134.8,23.9,136.1,23.4,141,23.4z"/>
		<path class="st0" d="M166.6,18.4l-3.8,0c0,0,0-5.1-0.1-6.6l0,0V9.1L156,7.4v4.8c-0.1,6.1,0,17.5,0.1,20.6c1.6,0.1,5.3,0.2,6.6,0
			c0-1.8,0.1-8.1,0.1-8.1l3.8,0L166.6,18.4z"/>
	</g>
	<g>
		<path class="st0" d="M348.2,38.3c-1.2-1.9-1.8-5.2-1.8-9.5V8.9h-7v19.9c0,4.3-0.6,7.6-1.8,9.5c-1.2,1.9-3.5,3.7-5.1,4v6.5
			c0.7,0,1.5-0.1,2.2-0.4c1.7-0.4,3.6-1.3,4.8-2.2c1.6-1.3,2.8-2.6,3.4-4c0.7,1.4,1.8,2.7,3.4,4c1.2,1,3.1,1.8,4.8,2.2
			c0.8,0.2,1.5,0.3,2.2,0.4v-6.5C351.7,42,349.5,40.3,348.2,38.3z"/>
		<g>
			<path class="st0" d="M354.2,23.4l-5.3,0v4.2c0,1.7,1.4,3.2,3.2,3.2c0.8,0,1.4,0,2.1,0c0,8.7,0.1,17.9,0.1,17.9h6.2V8.2h-6.2
				L354.2,23.4z"/>
			<path class="st0" d="M368.7,8.2h-6.4v40.6h3.2c1.8,0,3.2-1.4,3.2-3.2C368.7,36.9,368.7,8.2,368.7,8.2z"/>
		</g>
	</g>
	<path class="st0" d="M212.7,35.1c-0.2,1.7-0.2,4,0,5.7c3.3,0.1,16.9,0,26.8,0c0,2.7-0.1,5.8,0,8.1c0.9,0,2.3,0.1,3.7,0.1
		c1.7,0,3.2-1.4,3.2-3.1c0.1-3.3,0.1-8.1-0.1-10.7C242.2,34.9,216.3,34.9,212.7,35.1z"/>
	<path class="st0" d="M129.1,35.1c-0.2,1.7-0.2,4,0,5.7c3.3,0.1,16.9,0,26.8,0c0,2.7-0.1,5.8,0,8.1c0.9,0,2.3,0.1,3.7,0.1
		c1.7,0,3.2-1.4,3.2-3.1c0.1-3.3,0.1-8.1-0.1-10.7C158.7,34.9,132.7,34.9,129.1,35.1z"/>
	<g>
		<g>
			<path class="st0" d="M331.4,18.3l-3.7,0l-0.1-10.1c-2.4-0.1-4.7-0.2-7,0l0,26.9h3.8c1.8,0,3.2-1.4,3.2-3.2c0-2.5,0.1-7.2,0.1-7.2
				l3.7,0V18.3z"/>
			<path class="st0" d="M313.8,30.9c1.7,0,3.1-1.4,3.1-3.1c0.1-5.4,0.1-14.9-0.1-18.8c-5.3-0.2-17.5-0.2-22.8,0
				c-0.2,4.6-0.2,17,0,21.9C296.8,31,308,31,313.8,30.9z M300.5,14.7c2.7,0,7.4-0.1,9.6,0c0.1,1.6,0.1,8.4,0,9.9
				c-2.3,0.1-7.4,0.1-9.6,0C300.5,23,300.4,16.3,300.5,14.7z"/>
		</g>
		<path class="st0" d="M327.9,45.6c0-0.9-0.1-1.7-0.1-2.5c-3.3-0.1-16,0-25.8,0c0-2.7,0.1-5.8,0-8.1c-1.6-0.1-5.2-0.1-6.8,0
			c-0.1,2.2-0.3,10.1,0,13.7c3.4,0.2,21.7,0.2,29.6,0.1C326.5,48.8,327.9,47.4,327.9,45.6z"/>
	</g>
	<path class="st0" d="M190.3,29.7l0-6.9c-2.7-1.2-4.2-3-5.4-6.1c-0.6-1.9-0.7-4.4-0.7-6.1c0-0.9,0-1.7,0-1.7c-2.3-0.1-4.3-0.1-6.8,0
		v1c0,4.5-0.7,8.1-2,10.3c-1.4,2.2-4.2,3.7-5.8,3.9v6c5.9,0,10.6-5.6,11.4-7.3c0,0,0,0,0,0c0.5,1.6,4.9,6.8,9.3,7.3V29.7z"/>
</g>
</svg>
