<?xml version="1.0" encoding="utf-8"?>
<!-- Generator: Adobe Illustrator 23.1.1, SVG Export Plug-In . SVG Version: 6.00 Build 0)  -->
<svg version="1.1" id="레이어_1" xmlns="http://www.w3.org/2000/svg" xmlns:xlink="http://www.w3.org/1999/xlink" x="0px"
	 y="0px" viewBox="0 0 21.5 20.5" style="enable-background:new 0 0 21.5 20.5;" xml:space="preserve">
<style type="text/css">
	.st0{fill:#0A723F;}
</style>
<g id="그룹_767" transform="translate(-7449.866 34.764)">
	<g id="패스_421">
		<path class="st0" d="M7455.3-28.7c-2.8,0-4.3-1.4-5-2.3c-0.3-0.3-0.1-0.8,0.3-1l1.1-0.5c0.3-0.1,0.6,0,0.8,0.2
			c0.4,0.5,1.4,1.3,3.4,1.1c1.7-0.1,3.1-0.9,4.7-1.7c1.6-0.8,3.2-1.6,5.2-1.8c3.1-0.3,4.6,1.1,5.3,2c0.3,0.4,0.1,0.9-0.3,1l-1.1,0.4
			c-0.3,0.1-0.6,0-0.8-0.2c-0.4-0.4-1.2-0.9-2.8-0.7c-1.5,0.2-2.9,0.9-4.3,1.6c-1.7,0.9-3.5,1.8-5.6,1.9
			C7455.8-28.7,7455.5-28.7,7455.3-28.7z"/>
	</g>
	<g id="패스_422">
		<path class="st0" d="M7455.3-21.5c-2.8,0-4.3-1.4-5-2.3c-0.3-0.4-0.1-0.9,0.3-1c0,0,0.8-0.5,1.3-0.7c0.1,0,0.3,0,0.4,0.1
			c0.4,0.4,1.2,1.6,3.6,1.5c1.7-0.1,3.1-0.9,4.7-1.7c1.6-0.8,3.2-1.6,5.2-1.8c3.1-0.3,4.6,1.1,5.3,2c0.3,0.4,0.1,0.9-0.3,1l-1.1,0.4
			c-0.3,0.1-0.6,0-0.8-0.2c-0.4-0.4-1.2-0.9-2.8-0.7c-1.5,0.2-2.9,0.9-4.3,1.6c-1.7,0.9-3.5,1.8-5.6,1.9
			C7455.8-21.5,7455.5-21.5,7455.3-21.5z"/>
	</g>
	<g id="패스_423">
		<path class="st0" d="M7455.3-14.2c-2.8,0-4.3-1.4-5-2.3c-0.3-0.3-0.1-0.8,0.3-1l1-0.5c0.3-0.1,0.6-0.1,0.8,0.2
			c0.4,0.5,1.4,1.3,3.4,1.1c1.7-0.1,3.1-0.9,4.7-1.7c1.6-0.8,3.2-1.6,5.2-1.8c3.1-0.3,4.6,1.1,5.3,2c0.3,0.4,0.1,0.9-0.3,1l-1.1,0.4
			c-0.3,0.1-0.6,0-0.8-0.2c-0.4-0.4-1.2-0.9-2.8-0.7c-1.5,0.2-2.9,0.9-4.3,1.6c-1.7,0.9-3.5,1.8-5.6,1.9
			C7455.8-14.3,7455.5-14.2,7455.3-14.2z"/>
	</g>
</g>
</svg>
