<?xml version="1.0" encoding="utf-8"?>
<!-- Generator: Adobe Illustrator 25.2.0, SVG Export Plug-In . SVG Version: 6.00 Build 0)  -->
<svg version="1.1" id="header_logo" xmlns="http://www.w3.org/2000/svg" xmlns:xlink="http://www.w3.org/1999/xlink" x="0px"
	 y="0px" viewBox="0 0 174.1 24" style="enable-background:new 0 0 174.1 24;" xml:space="preserve">
<style type="text/css">
	.st0{clip-path:url(#SVGID_2_);}
	.st1{fill:#00AA5F;}
	.st2{fill:#00914C;}
</style>
<g id="그룹_4294">
	<g>
		<defs>
			<rect id="SVGID_1_" x="2" width="112" height="24"/>
		</defs>
		<clipPath id="SVGID_2_">
			<use xlink:href="#SVGID_1_"  style="overflow:visible;"/>
		</clipPath>
		<g id="그룹_4294-2" class="st0">
			<path id="패스_3569" class="st1" d="M67.8,10.4h-9.1V3.5l-4.2-1v19.3h4.2v-7.9h9.1v7.9h2.4c1,0,1.8-0.8,1.8-1.8V3.5l-4.2-1
				V10.4z"/>
			<path id="패스_3570" class="st1" d="M87.9,3.7c-1.7-0.8-3.5-1.3-5.3-1.2h-8.1v19.3h7.9c1.9,0,3.8-0.4,5.5-1.2
				c1.5-0.7,2.8-1.9,3.7-3.4c0.9-1.5,1.3-3.3,1.3-5c0-1.8-0.4-3.5-1.3-5C90.7,5.7,89.5,4.5,87.9,3.7 M88.6,12.2
				c0.1,1.7-0.6,3.3-1.7,4.5c-1.2,1.2-2.9,1.8-4.6,1.7h-3.6V5.9h3.4c1.7-0.1,3.4,0.5,4.7,1.7C88,8.8,88.7,10.5,88.6,12.2"/>
			<path id="패스_3571" class="st1" d="M110.3,2.5l-6,7.2l-6-7.2h-3.7v19.3h4.2V9.1l5.2,6.2h0.6l5.2-6.2v12.8h2.4
				c1,0,1.8-0.8,1.8-1.8V2.5H110.3z"/>
			<path id="패스_3572" class="st1" d="M47.5,22.4V3.8L32.1,0.1c-0.8-0.3-1.7,0.2-2,1.1c-0.1,0.2-0.1,0.4-0.1,0.5v18.6L45.4,24
				c0.9,0.2,1.8-0.4,2-1.3C47.5,22.6,47.5,22.5,47.5,22.4"/>
			<path id="패스_3573" class="st2" d="M32.1,0.1c-0.8-0.3-1.7,0.2-2,1.1c-0.1,0.2-0.1,0.4-0.1,0.5v18.6l6.3,1.5l2.7-20L32.1,0.1z
				"/>
			<path id="패스_3574" class="st1" d="M33.5,22.4V3.8L18.1,0.1c-0.8-0.3-1.7,0.2-2,1C16,1.3,16,1.5,16,1.7v18.6L31.4,24
				c0.9,0.2,1.8-0.3,2-1.2C33.4,22.7,33.5,22.5,33.5,22.4"/>
			<path id="패스_3575" class="st2" d="M18.1,0.1c-0.8-0.3-1.7,0.2-2,1C16,1.3,16,1.5,16,1.7v18.6l6.3,1.5l2.7-20L18.1,0.1z"/>
			<path id="패스_3576" class="st1" d="M19.4,22.4V3.8L4,0.1c-0.8-0.3-1.7,0.2-2,1C2,1.3,2,1.5,2,1.7v18.6L17.4,24
				c0.9,0.2,1.8-0.3,2-1.2C19.4,22.6,19.4,22.5,19.4,22.4"/>
		</g>
	</g>
</g>
</svg>
