<svg id="그룹_325" data-name="그룹 325" xmlns="http://www.w3.org/2000/svg" width="194.681" height="25" viewBox="0 0 194.681 25">
  <g id="그룹_298" data-name="그룹 298">
    <path id="패스_1" data-name="패스 1" d="M16.133,8.337,0,4.014V0L16.133,4.323Z" fill="#5f5f5f"/>
    <path id="패스_2" data-name="패스 2" d="M39.568,8.741,23.435,4.418V.4L39.568,4.727Z" transform="translate(-7.302 -0.126)" fill="#5f5f5f"/>
    <path id="패스_3" data-name="패스 3" d="M63,9.145,46.87,4.822V.808L63,5.131Z" transform="translate(-14.604 -0.252)" fill="#5f5f5f"/>
    <path id="패스_4" data-name="패스 4" d="M16.133,20.043,0,15.72V11.706l16.133,4.323Z" transform="translate(0 -3.648)" fill="#5f5f5f"/>
    <path id="패스_5" data-name="패스 5" d="M39.568,20.447,23.435,16.124V12.11l16.133,4.323Z" transform="translate(-7.302 -3.773)" fill="#5f5f5f"/>
    <path id="패스_6" data-name="패스 6" d="M63,20.851,46.87,16.529V12.515L63,16.837Z" transform="translate(-14.604 -3.899)" fill="#5f5f5f"/>
    <path id="패스_7" data-name="패스 7" d="M16.133,31.734,0,27.411V23.4L16.133,27.72Z" transform="translate(0 -7.29)" fill="#5f5f5f"/>
    <path id="패스_8" data-name="패스 8" d="M39.568,32.138,23.435,27.815V23.8l16.133,4.323Z" transform="translate(-7.302 -7.416)" fill="#5f5f5f"/>
    <path id="패스_9" data-name="패스 9" d="M63,32.542,46.87,28.219V24.205L63,28.528Z" transform="translate(-14.604 -7.542)" fill="#5f5f5f"/>
  </g>
  <g id="그룹_299" data-name="그룹 299" transform="translate(58.689 3.086)">
    <path id="패스_10" data-name="패스 10" d="M100.962,6.529c1.275.268,2.424,1.341,2.211,2.064H92.481l-2.53.124-.34-1.3,3.614.166h.914c-.022-.847-.064-1.424-.127-2.5a19.061,19.061,0,0,1,4.188.352c.4.1.744.413.723.66-.022.309-.255.454-.361.867l-.064.619h1.552Zm-10.479,6.48c0-2.662,2.594-3.57,5.888-3.57,3.465,0,5.888.908,5.888,3.57v.227c0,2.642-2.594,3.551-5.888,3.551s-5.888-.908-5.888-3.551ZM95.2,19.594l-3.359.123-.425-1.238,3.508.124,8.609-.124.893-1.031a18.853,18.853,0,0,1,3.252.577c.446.124.744.33.808.619a1.177,1.177,0,0,1-.255.805v3.9c0,.744-1.169,1.363-2.806,1.445-1.063.062-1.616-.144-1.616-.7v-4.6Zm-.553-6.358c0,1.548.468,2.436,1.722,2.436s1.722-.888,1.722-2.436v-.227c0-1.568-.468-2.456-1.722-2.456s-1.722.888-1.722,2.456ZM109.381,9.81a3.832,3.832,0,0,1,1.679,1.59c.128.247-.021.475-.319.475h-2.572l.085,3.075c.021,1.218-1.191,1.672-2.955,1.817-.957.082-1.424-.269-1.4-.785.064-2.828.085-7.368,0-10.692a16.5,16.5,0,0,1,4.018.454c.468.124.744.413.722.66-.02.31-.255.517-.361.929l-.128,3.405v.124h.064Z" transform="translate(-89.611 -5.083)" fill="#5f5f5f"/>
    <path id="패스_11" data-name="패스 11" d="M122.963,16.585a.3.3,0,0,1-.085-.392,23.219,23.219,0,0,0,3.529-8.751l.064-1.837a15.616,15.616,0,0,1,3.508.536c.659.186.829.516.829.826s-.17.433-.361.784a17.582,17.582,0,0,1-1.36,2.911,12.977,12.977,0,0,1,4.06,2.662,1.935,1.935,0,0,1,.106,2.312,1.676,1.676,0,0,1-1.658.681,1.226,1.226,0,0,1-1.254-.867,12.135,12.135,0,0,0-1.829-3.86,20.662,20.662,0,0,1-4.974,5.057A.419.419,0,0,1,122.963,16.585Zm8.546.929h4.358c4.443,0,7.058.784,7.058,3.674,0,2.827-2.615,3.633-7.058,3.633h-4.358c-4.443,0-7.057-.806-7.057-3.633C124.452,18.3,127.066,17.514,131.509,17.514Zm6.994,3.653a2.629,2.629,0,0,0-2.784-2.621h-4.061a2.629,2.629,0,0,0-2.784,2.621,2.663,2.663,0,0,0,2.784,2.6h4.061A2.65,2.65,0,0,0,138.5,21.167Zm-4.4-15.79a12.66,12.66,0,0,1,3.316.351c.51.145.7.413.681.661-.022.309-.213.433-.318.847L137.7,10.33h1.339c0-1.692-.021-3.405-.063-4.953a12.848,12.848,0,0,1,3.252.392c.489.124.744.392.7.66a4.308,4.308,0,0,1-.34.847l-.085,3.735.085,4.108c.022,1.217-.68,1.465-2.21,1.507-.893.02-1.36-.165-1.36-.744,0-1.32.021-2.827.021-4.354h-.872l-.489.02.107,3.571c.02,1.031-.617,1.465-2.3,1.465-1.021,0-1.339-.227-1.318-.743C134.251,12.808,134.23,9.361,134.1,5.377Z" transform="translate(-99.477 -5.17)" fill="#5f5f5f"/>
    <path id="패스_12" data-name="패스 12" d="M173.862,14.358c1.126.144,2.572,1.465,2.168,2.022l-16.985.021-2.955.062-.425-1.218,4.209.165h3.975V12.541h-1.977a5.058,5.058,0,0,1-2.338.64,4.407,4.407,0,0,1-1.913-.1c-.3-.145-.446-.413-.425-.97l.043-3.056-.128-3.095a11.655,11.655,0,0,1,4.741.66h9.438L172.5,5.524c1.105.289,2.3,1.672,2.019,2.126H161.894v3.9h9.694l1.147-1.114c1.4.351,2.424,1.672,2.084,2.105H168.25v2.869h4.379Zm-13.2,5.511-3.4.124-.425-1.218,3.551.124,9.4-.165.893-1.032a21.327,21.327,0,0,1,3.444.6c.382.1.787.227.935.537.149.289-.148.557-.3.825V23.6c0,.743-.978,1.177-3.1,1.363-1.062.1-1.594.02-1.594-.536V19.725Z" transform="translate(-109.224 -5.214)" fill="#5f5f5f"/>
    <path id="패스_13" data-name="패스 13" d="M189.627,14.91a.411.411,0,0,1,.064-.619V11.525c-.021-.681-.021-1.259-.085-1.919a14.119,14.119,0,0,1,3.677.186,1.186,1.186,0,0,1,.6.309H196.9V7.644l-3.423.041-3.295.144-.425-1.218,3.21.082,3.89-.041.6-.805a21.968,21.968,0,0,1,3.359.536c.4.1.744.269.808.578s-.128.517-.276.784L201.3,8.759l.064,1.382c.042.785-1,1.135-3.018,1.177a1.966,1.966,0,0,1-1.148-.207h-3.3v2.641c2.87-.186,6.909-.474,9.97-.825.021-2.559,0-5.077-.064-7.492a16.692,16.692,0,0,1,4.188.5c.4.1.744.413.723.66-.021.309-.255.515-.361.928l-.107,3.489.043,3.633c.021,1.218-1.148,1.631-2.955,1.713-.977.041-1.509-.247-1.509-.763,0-.6.021-1.218.021-1.817a91.256,91.256,0,0,1-11.373,2.518,1.779,1.779,0,0,1-.7.31.808.808,0,0,1-.808-.248A17.871,17.871,0,0,1,189.627,14.91Zm14.286,2.27a12.528,12.528,0,0,1,4.081.558.67.67,0,0,1,.468.577A1.263,1.263,0,0,1,208.1,19l-.043,2.023.043,2.312c.022,1.073-.978,1.28-2.53,1.382-1.233.083-1.616-.165-1.616-.6v-.041h-9.332a3.375,3.375,0,0,1-2.4.743c-1.233.021-1.531-.186-1.531-.785V20.049l-.128-2.642c1.446-.061,3.529.021,4.379.6l-.063,1.589v.248h9.077v-.351ZM194.878,23.1h9.077V20.812h-9.077Z" transform="translate(-119.274 -5.188)" fill="#5f5f5f"/>
    <path id="패스_14" data-name="패스 14" d="M229.644,6.842l.617-1.114a19.1,19.1,0,0,1,3.55.805.644.644,0,0,1,.489.5.688.688,0,0,1-.255.557l-.042,3.3.085,3.508c.042,1.073-1.042,1.61-2.658,1.8-1.148.124-1.637-.1-1.7-.537V15.47h-3.252a2.684,2.684,0,0,1-1.977.805c-1.254.1-2,0-2-.908V11.116l-.085-4.975c.915-.145,3.721,0,4.252.7ZM228.2,23.087h9.693l1.084-1.2c1.34.1,2.892,1.569,2.594,2.209H228.177a5.957,5.957,0,0,1-2.976.6c-.957-.021-1.467-.227-1.467-.949V20.4l-.064-2.7a13.874,13.874,0,0,1,4.1.392,1.012,1.012,0,0,1,.68.578.729.729,0,0,1-.255.7ZM226.668,7.812V14.5h3.061V7.812Zm14.817,3.076a3.823,3.823,0,0,1,1.679,1.589c.128.247-.02.475-.318.475h-2.593l.106,4.644c.021,1.218-1.191,1.672-2.955,1.817-.957.082-1.424-.269-1.4-.785.064-3.034.085-9.927,0-13.251a16.5,16.5,0,0,1,4.018.454c.468.124.745.413.723.66-.021.31-.255.517-.361.929l-.127,4.52h.064Z" transform="translate(-129.044 -5.17)" fill="#5f5f5f"/>
    <path id="패스_15" data-name="패스 15" d="M254.671,23.581a.258.258,0,0,1-.107-.371c1.871-4.273,2.722-7.863,3.21-14.943l.064-2.208a13.866,13.866,0,0,1,3.38.454c.808.206,1.126.577,1.169.887.042.269-.128.475-.34.847-.383,2.023-.766,3.777-1.233,5.367a29.006,29.006,0,0,1,4.145,7.017,2.151,2.151,0,0,1-1.063,2.477,2.458,2.458,0,0,1-2.083.041c-.446-.227-.553-.495-.6-1.114a36.523,36.523,0,0,0-1.02-6.564,23.7,23.7,0,0,1-4.91,8.133C255.139,23.767,254.884,23.706,254.671,23.581Zm8.163-9.328-.34-1.384,2.529.021.766-.021c0-2.5-.022-5.035-.085-7.492a13.582,13.582,0,0,1,3.189.372c.552.144.765.413.722.66-.042.309-.255.516-.361.929l-.085,7.306.128,8.236c.021,1.218-.532,1.651-2.274,1.795-.893.083-1.318-.227-1.318-.742.042-3.075.085-6.461.085-9.887l-.808.041Zm7.8-8.876a11.818,11.818,0,0,1,3.21.433c.4.1.744.413.723.661-.021.31-.255.516-.361.929l-.106,7.389.149,8.092c.021,1.218-.659,1.672-2.254,1.795-.892.063-1.318-.227-1.318-.742C270.764,18.236,270.785,11.177,270.636,5.377Z" transform="translate(-138.578 -5.17)" fill="#5f5f5f"/>
  </g>
</svg>
