<svg xmlns="http://www.w3.org/2000/svg" id="header_logo_gray" width="170" height="22" viewBox="0 0 170 22">
    <defs>
        <style>
            .cls-1{fill:#fff}
        </style>
    </defs>
    <g id="그룹_298" data-name="그룹 298">
        <path id="패스_1" d="M14.3 7.389L0 3.558V0l14.3 3.832z" class="cls-1" data-name="패스 1"/>
        <path id="패스_2" d="M37.734 7.793l-14.3-3.832V.4l14.3 3.835z" class="cls-1" data-name="패스 2" transform="translate(-9.136 -.157)"/>
        <path id="패스_3" d="M61.167 8.2L46.87 4.366V.808l14.3 3.832z" class="cls-1" data-name="패스 3" transform="translate(-18.271 -.315)"/>
        <path id="패스_4" d="M14.3 19.1L0 15.264v-3.558l14.3 3.832z" class="cls-1" data-name="패스 4" transform="translate(0 -4.641)"/>
        <path id="패스_5" d="M37.734 19.5l-14.3-3.832V12.11l14.3 3.832z" class="cls-1" data-name="패스 5" transform="translate(-9.136 -4.8)"/>
        <path id="패스_6" d="M61.167 19.9l-14.3-3.831v-3.554l14.3 3.831z" class="cls-1" data-name="패스 6" transform="translate(-18.271 -4.96)"/>
        <path id="패스_7" d="M14.3 30.787L0 26.955V23.4l14.3 3.829z" class="cls-1" data-name="패스 7" transform="translate(0 -9.28)"/>
        <path id="패스_8" d="M37.734 31.19l-14.3-3.832V23.8l14.3 3.832z" class="cls-1" data-name="패스 8" transform="translate(-9.136 -9.437)"/>
        <path id="패스_9" d="M61.167 31.594l-14.3-3.832V24.2l14.3 3.832z" class="cls-1" data-name="패스 9" transform="translate(-18.271 -9.594)"/>
    </g>
    <g id="그룹_299" data-name="그룹 299" transform="translate(49.466 2.729)">
        <path id="패스_10" d="M99.672 6.352c1.13.235 2.149 1.178 1.96 1.813h-9.477l-2.242.109-.3-1.142 3.2.146h.81c-.02-.744-.057-1.251-.113-2.2a17.046 17.046 0 0 1 3.712.309c.355.088.659.363.641.58-.02.271-.226.4-.32.761l-.057.544h1.376zm-9.288 5.691c0-2.338 2.3-3.136 5.219-3.136 3.071 0 5.219.8 5.219 3.136v.2c0 2.32-2.3 3.119-5.219 3.119s-5.219-.8-5.219-3.119zm4.181 5.784l-2.977.108-.377-1.087 3.109.109 7.631-.109.792-.906a16.849 16.849 0 0 1 2.882.507c.4.109.659.29.716.544a1.027 1.027 0 0 1-.226.707v3.425c0 .653-1.036 1.2-2.487 1.269-.942.054-1.432-.126-1.432-.615v-4.04zm-.49-5.584c0 1.36.415 2.14 1.526 2.14s1.526-.78 1.526-2.14v-.2c0-1.377-.415-2.157-1.526-2.157s-1.526.78-1.526 2.157zm13.059-3.009a3.384 3.384 0 0 1 1.488 1.4c.113.217-.019.417-.283.417h-2.28l.075 2.7c.019 1.07-1.056 1.469-2.619 1.6-.848.072-1.262-.236-1.241-.689.057-2.484.075-6.471 0-9.391a14.753 14.753 0 0 1 3.561.4c.415.109.659.363.64.58-.018.272-.226.454-.32.816l-.113 2.991v.109h.057z" class="cls-1" data-name="패스 10" transform="translate(-89.611 -5.076)"/>
        <path id="패스_11" d="M122.949 15.219a.262.262 0 0 1-.075-.344A20.285 20.285 0 0 0 126 7.19l.057-1.613a13.96 13.96 0 0 1 3.109.471c.584.163.735.453.735.725s-.151.38-.32.688a15.375 15.375 0 0 1-1.205 2.556 11.512 11.512 0 0 1 3.6 2.338 1.687 1.687 0 0 1 .094 2.03 1.492 1.492 0 0 1-1.47.6 1.086 1.086 0 0 1-1.111-.761 10.614 10.614 0 0 0-1.621-3.39 18.226 18.226 0 0 1-4.409 4.441.374.374 0 0 1-.51-.056zm7.575.816h3.863c3.938 0 6.256.688 6.256 3.226 0 2.483-2.318 3.19-6.256 3.19h-3.863c-3.938 0-6.255-.708-6.255-3.19 0-2.536 2.317-3.226 6.255-3.226zm6.2 3.208a2.3 2.3 0 0 0-.733-1.678 2.343 2.343 0 0 0-1.735-.624h-3.6a2.343 2.343 0 0 0-1.735.624 2.3 2.3 0 0 0-.733 1.678 2.329 2.329 0 0 0 .749 1.656 2.373 2.373 0 0 0 1.719.627h3.6a2.362 2.362 0 0 0 1.721-.624 2.318 2.318 0 0 0 .744-1.659zm-3.9-13.867a11.321 11.321 0 0 1 2.939.308c.452.127.62.363.6.58-.019.271-.189.38-.282.744l-.073 2.717h1.192c0-1.486-.019-2.99-.056-4.35a11.488 11.488 0 0 1 2.882.344c.433.109.659.344.62.58a3.764 3.764 0 0 1-.3.744l-.075 3.28.075 3.608c.02 1.069-.6 1.287-1.959 1.323-.792.018-1.205-.145-1.205-.653 0-1.159.019-2.483.019-3.824h-.773l-.433.018.095 3.136c.018.905-.547 1.287-2.039 1.287-.9 0-1.187-.2-1.168-.652.074-2.664.056-5.691-.059-9.189z" class="cls-1" data-name="패스 11" transform="translate(-102.132 -5.187)"/>
        <path id="패스_12" d="M171.794 13.282c1 .126 2.28 1.287 1.922 1.776l-15.055.018-2.619.054-.377-1.07 3.731.145h3.523v-2.52h-1.752a4.515 4.515 0 0 1-2.072.562 3.941 3.941 0 0 1-1.7-.088c-.266-.127-.4-.363-.377-.852l.038-2.684-.113-2.718a10.419 10.419 0 0 1 4.2.58h8.365l1.072-.963c.979.254 2.039 1.468 1.79 1.867h-11.19v3.425h8.592l1.017-.978c1.241.308 2.149 1.468 1.847 1.849h-5.816v2.52h3.88zm-11.7 4.84l-3.014.109-.377-1.07 3.147.109 8.332-.145.792-.906a19.063 19.063 0 0 1 3.053.527c.339.088.7.2.829.472.132.254-.131.489-.266.725V21.4c0 .653-.867 1.034-2.748 1.2-.941.088-1.413.018-1.413-.471V18z" class="cls-1" data-name="패스 12" transform="translate(-114.502 -5.243)"/>
        <path id="패스_13" d="M189.614 13.756a.359.359 0 0 1 .057-.544v-2.429c-.019-.6-.019-1.106-.075-1.685a12.629 12.629 0 0 1 3.259.163 1.055 1.055 0 0 1 .532.271h2.674V7.375l-3.034.036-2.921.126-.377-1.07 2.845.072 3.448-.036.532-.707a19.639 19.639 0 0 1 2.977.471c.355.088.659.236.716.508s-.113.454-.245.688l-.043.89.057 1.214c.037.689-.886 1-2.675 1.034a1.757 1.757 0 0 1-1.018-.182H193.4v2.319c2.544-.163 6.124-.416 8.837-.724.019-2.247 0-4.458-.057-6.579a14.926 14.926 0 0 1 3.712.439c.355.088.659.363.641.58-.019.271-.226.452-.32.815l-.095 3.064.038 3.19c.019 1.07-1.018 1.432-2.619 1.5-.866.036-1.338-.217-1.338-.67 0-.527.019-1.07.019-1.6a81.532 81.532 0 0 1-10.08 2.211 1.584 1.584 0 0 1-.62.272.72.72 0 0 1-.716-.218 15.75 15.75 0 0 1-1.187-1.272zm12.662 1.993a11.2 11.2 0 0 1 3.617.49.59.59 0 0 1 .415.507 1.106 1.106 0 0 1-.321.6l-.038 1.777.038 2.03c.02.942-.867 1.124-2.242 1.214-1.093.073-1.432-.145-1.432-.527v-.04h-8.271a3.01 3.01 0 0 1-2.127.652c-1.093.018-1.357-.163-1.357-.689v-3.5l-.113-2.32c1.282-.054 3.128.018 3.881.527l-.056 1.4v.218h8.045v-.308zm-8.008 5.2h8.045v-2.011h-8.045z" class="cls-1" data-name="패스 13" transform="translate(-127.257 -5.21)"/>
        <path id="패스_14" d="M228.823 6.663l.547-.978a17.064 17.064 0 0 1 3.147.707.568.568 0 0 1 .433.439.6.6 0 0 1-.226.489l-.037 2.9.075 3.081c.037.942-.924 1.414-2.356 1.581-1.018.109-1.451-.088-1.507-.472v-.17h-2.882a2.39 2.39 0 0 1-1.752.707c-1.111.088-1.773 0-1.773-.8v-3.73l-.075-4.369c.811-.127 3.3 0 3.769.615zm-1.28 14.265h8.591l.961-1.054c1.188.088 2.563 1.378 2.3 1.94h-11.873a5.322 5.322 0 0 1-2.638.527c-.848-.018-1.3-.2-1.3-.833v-2.939l-.057-2.371a12.408 12.408 0 0 1 3.634.344.9.9 0 0 1 .6.508.637.637 0 0 1-.226.615zm-1.358-13.413v5.873h2.715V7.515zm13.133 2.7a3.376 3.376 0 0 1 1.488 1.4c.113.217-.018.417-.282.417h-2.3l.094 4.078c.019 1.07-1.056 1.468-2.619 1.6-.848.072-1.262-.236-1.241-.689.057-2.664.075-8.717 0-11.636a14.755 14.755 0 0 1 3.561.4c.415.109.66.363.641.58-.019.272-.226.454-.32.816l-.113 3.969h.057z" class="cls-1" data-name="패스 14" transform="translate(-139.656 -5.187)"/>
        <path id="패스_15" d="M254.654 21.362a.227.227 0 0 1-.121-.142.225.225 0 0 1 .027-.184c1.658-3.752 2.413-6.9 2.845-13.122l.057-1.939a12.4 12.4 0 0 1 3 .4c.716.181 1 .507 1.036.779.037.236-.113.417-.3.744-.339 1.776-.679 3.317-1.093 4.713a25.42 25.42 0 0 1 3.674 6.162 1.882 1.882 0 0 1-.942 2.175 2.2 2.2 0 0 1-1.846.036c-.4-.2-.49-.435-.532-.978a31.8 31.8 0 0 0-.9-5.764 20.776 20.776 0 0 1-4.352 7.142c-.138.142-.364.088-.553-.022zm7.235-8.191l-.3-1.215 2.242.018.679-.018c0-2.2-.02-4.421-.075-6.579a12.146 12.146 0 0 1 2.827.327c.489.126.678.363.64.58-.037.271-.226.453-.32.816l-.075 6.416.113 7.232c.019 1.07-.472 1.45-2.016 1.576-.792.073-1.168-.2-1.168-.652.037-2.7.075-5.674.075-8.682l-.716.036zm6.911-7.794a10.566 10.566 0 0 1 2.845.38c.355.088.659.363.641.58-.019.272-.226.453-.32.816l-.094 6.489.132 7.106c.019 1.07-.584 1.468-2 1.576-.791.055-1.168-.2-1.168-.652.077-5 .1-11.2-.036-16.3z" class="cls-1" data-name="패스 15" transform="translate(-151.756 -5.188)"/>
    </g>
</svg>
