<svg xmlns="http://www.w3.org/2000/svg" id="header_logo" width="111.984" height="24.043" viewBox="0 0 111.984 24.043">
    <defs>
        <clipPath id="clip-path">
            <path id="사각형_2134" fill="none" d="M0 0H111.984V24.043H0z"/>
        </clipPath>
        <style>
            .cls-3{fill:#00aa5f}.cls-4{fill:#00914c}
        </style>
    </defs>
    <g id="그룹_4294">
        <g id="그룹_4294-2" clip-path="url(#clip-path)">
            <path id="패스_3569" d="M157.027 14.765h-9.132V7.909l-4.213-1.031v19.33h4.213v-7.914h9.132v7.914h2.438a1.776 1.776 0 0 0 1.775-1.776V7.9l-4.213-1.026z" class="cls-3" transform="translate(-91.226 -4.367)"/>
            <path id="패스_3570" d="M211.947 8.106a11.406 11.406 0 0 0-5.347-1.227h-8.142v19.329h7.928a12.151 12.151 0 0 0 5.484-1.2 8.846 8.846 0 0 0 3.73-3.408 9.662 9.662 0 0 0 1.31-5.027 9.789 9.789 0 0 0-1.3-5 8.993 8.993 0 0 0-3.659-3.466m.626 8.444a6.112 6.112 0 0 1-1.73 4.519 6.289 6.289 0 0 1-4.613 1.718h-3.553V10.3h3.432a6.569 6.569 0 0 1 4.724 1.675 6.07 6.07 0 0 1 1.74 4.575" class="cls-3" transform="translate(-126.009 -4.367)"/>
            <path id="패스_3571" d="M269.341 6.879l-6.018 7.221-6.023-7.221h-3.694v19.329h4.214V13.451l5.163 6.2h.643l5.163-6.2v12.757h2.438a1.776 1.776 0 0 0 1.776-1.775V6.879z" class="cls-3" transform="translate(-161.023 -4.367)"/>
            <path id="패스_3572" d="M94.348 22.381V3.818L78.939.058a1.6 1.6 0 0 0-2.056 1.622v18.562L92.26 24a1.7 1.7 0 0 0 2.087-1.614" class="cls-3" transform="translate(-48.815)"/>
            <path id="패스_3573" d="M78.939.058a1.6 1.6 0 0 0-2.057 1.621v18.562l6.311 1.54L85.9 1.768z" class="cls-4" transform="translate(-48.814)"/>
            <path id="패스_3574" d="M55.867 22.406V3.843L40.49.091A1.582 1.582 0 0 0 38.441 1.7v18.562l15.377 3.753a1.656 1.656 0 0 0 2.049-1.609" class="cls-3" transform="translate(-24.407 -.02)"/>
            <path id="패스_3575" d="M40.49.091A1.582 1.582 0 0 0 38.441 1.7v18.561l6.311 1.54L47.468 1.79z" class="cls-4" transform="translate(-24.407 -.02)"/>
            <path id="패스_3576" d="M17.426 22.406V3.843L2.048.091A1.582 1.582 0 0 0 0 1.7v18.562l15.377 3.753a1.656 1.656 0 0 0 2.048-1.609" class="cls-3" transform="translate(0 -.02)"/>
        </g>
    </g>
</svg>
